HIERARCHY
ROOT Hips
{
	OFFSET	0.000000	0.000000	0.000000
	CHANNELS 6 Xposition Yposition Zposition Zrotation Xrotation Yrotation
	JOINT LeftUpLeg
	{
		OFFSET	12.830505	-7.049846	-1.643436
		CHANNELS 3 Zrotation Xrotation Yrotation
		JOINT LeftLeg
		{
			OFFSET	0.620834	-39.957502	-1.919341
			CHANNELS 3 Zrotation Xrotation Yrotation
			JOINT LeftFoot
			{
				OFFSET	-0.413890	-44.704761	-3.870325
				CHANNELS 3 Zrotation Xrotation Yrotation
				JOINT LeftFootHeel
				{
					OFFSET	0.164738	-8.918194	-6.555130
					CHANNELS 3 Zrotation Xrotation Yrotation
					End Site
					{
						OFFSET	-0.604053	0.000000	21.044330
					}
				}
			}
		}
	}
	JOINT RightUpLeg
	{
		OFFSET	-12.830505	-7.049846	-1.643436
		CHANNELS 3 Zrotation Xrotation Yrotation
		JOINT RightLeg
		{
			OFFSET	-0.620834	-39.957502	-1.919341
			CHANNELS 3 Zrotation Xrotation Yrotation
			JOINT RightFoot
			{
				OFFSET	0.413890	-44.704761	-3.870325
				CHANNELS 3 Zrotation Xrotation Yrotation
				JOINT RightFootHeel
				{
					OFFSET	-0.164738	-8.918194	-6.555130
					CHANNELS 3 Zrotation Xrotation Yrotation
					End Site
					{
						OFFSET	0.604053	0.000000	21.044330
					}
				}
			}
		}
	}
	JOINT Spine
	{
		OFFSET	0.000000	12.498171	1.820647
		CHANNELS 3 Zrotation Xrotation Yrotation
		JOINT Spine1
		{
			OFFSET	0.000000	7.620000	0.000000
			CHANNELS 3 Zrotation Xrotation Yrotation
			JOINT LeftShoulder
			{
				OFFSET	9.167800	29.136339	-5.551221
				CHANNELS 3 Zrotation Xrotation Yrotation
				JOINT LeftArm
				{
					OFFSET	12.133453	-3.880866	1.461963
					CHANNELS 3 Zrotation Xrotation Yrotation
					JOINT LeftForeArm
					{
						OFFSET	2.507115	-31.664910	-1.069404
						CHANNELS 3 Zrotation Xrotation Yrotation
						JOINT LeftHand
						{
							OFFSET	4.116172	-24.512624	5.009439
							CHANNELS 3 Zrotation Xrotation Yrotation
							End Site
							{
								OFFSET	-0.213136	-10.931856	2.182134
							}
						}
					}
				}
			}
			JOINT RightShoulder
			{
				OFFSET	-9.167800	29.136339	-5.551221
				CHANNELS 3 Zrotation Xrotation Yrotation
				JOINT RightArm
				{
					OFFSET	-12.133453	-3.880866	1.461963
					CHANNELS 3 Zrotation Xrotation Yrotation
					JOINT RightForeArm
					{
						OFFSET	-2.507115	-31.664910	-1.069404
						CHANNELS 3 Zrotation Xrotation Yrotation
						JOINT RightHand
						{
							OFFSET	-4.116172	-24.512624	5.009439
							CHANNELS 3 Zrotation Xrotation Yrotation
							End Site
							{
								OFFSET	0.213136	-10.931856	2.182134
							}
						}
					}
				}
			}
			JOINT Neck
			{
				OFFSET	0.000000	32.926275	-3.635654
				CHANNELS 3 Zrotation Xrotation Yrotation
				JOINT Head
				{
					OFFSET	0.000000	12.481178	4.646143
					CHANNELS 3 Zrotation Xrotation Yrotation
					End Site
					{
						OFFSET	0.000000	17.715205	-2.222063
					}
				}
			}
		}
	}
}
MOTION
Frames:     11
Frame Time: 0.016667
11.567850	100.432589	-12.514493	2.653485	-36.561813	-45.559238	56.676048	-80.170647	42.561646	-68.446129	78.578384	82.220680	-5.562655	5.440072	-3.640711	0.	0.	0.	-49.476719	-6.492370	-22.696318	6.088711	49.710526	-9.076059	-5.006985	-10.468196	-21.220686	0.	0.	0.	-0.000000	-0.000000	-0.000000	-3.624471	36.771175	15.069901	11.367930	-4.159359	25.247786	69.094299	4.991552	21.715313	-5.658584	-8.159907	-0.241660	25.883223	11.630168	-10.755695	-26.661022	-4.049003	11.342631	-112.570839	-32.208427	-68.492783	-7.688239	-55.701294	-2.544864	-20.009174	20.342073	14.432624	-5.826462	22.760405	12.424090	-14.797935	1.830839	0.744768	
10.235470	99.635971	-12.492024	1.178815	-33.807365	-48.069450	39.190025	-75.178734	27.154272	-64.031052	78.769806	74.620392	-6.086027	4.332890	-3.534030	0.	0.	0.	-48.915558	-7.563457	-23.916189	11.912443	51.273422	-15.396486	-6.737383	-12.394737	-16.850883	0.	0.	0.	-0.000000	0.000000	-0.000001	1.616655	33.915573	14.742960	9.687960	-6.004074	24.784328	65.424599	14.034927	18.861372	-6.423434	-3.871495	-3.057532	27.760412	11.624110	-11.137053	-25.037548	-2.153848	10.102459	-109.115250	-30.487906	-66.276070	-7.994278	-57.046185	-2.430187	-21.619572	20.118572	13.248935	-0.466799	24.128996	8.651954	-20.902914	1.994528	4.287804	
9.215048	99.194360	-11.519401	0.413307	-32.248310	-49.238571	37.869003	-72.594666	26.380272	-64.659676	78.972504	73.466621	-6.573029	3.947100	-2.809177	0.	0.	0.	-49.555889	-6.784440	-29.109499	10.755651	52.482708	-12.123587	-7.213640	-13.786057	-14.009795	0.	0.	0.	-0.000002	0.000002	0.000000	4.102513	31.630278	14.025524	9.070589	-5.365118	23.834208	62.701424	19.942196	18.334000	-6.486037	-2.797547	-3.836462	28.818150	11.285715	-11.276511	-23.949295	-0.574100	9.889999	-106.841026	-29.475538	-65.105598	-7.355656	-52.998562	-0.044003	-21.352322	16.284100	9.475443	1.640936	25.415125	8.180013	-22.323997	1.609054	5.947066	
7.349784	97.719325	-11.798977	-0.767184	-28.129751	-52.102039	38.221130	-65.636322	28.704386	-68.820000	80.300041	75.923882	-8.339288	2.501603	0.246645	0.	0.	0.	-47.892048	-8.564394	-34.024132	12.738305	55.595108	-13.045474	-8.304912	-17.109087	-9.907274	0.	0.	0.	0.000002	-0.000002	0.000001	8.737273	25.290836	16.428967	6.631524	-3.861150	18.845724	50.262302	34.519726	20.340143	-6.062187	-0.442158	1.383850	31.655844	11.930337	-11.039710	-20.453886	4.891592	4.420455	-97.808479	-26.013700	-60.788082	-2.592194	-57.337334	3.603777	-24.497112	19.286741	12.196158	6.998218	27.879742	3.805376	-21.031754	1.877645	8.183678	
7.063716	96.368583	-11.580411	-1.584274	-26.093082	-53.282993	32.967270	-59.762119	28.843374	-35.162155	82.961845	43.330532	-8.690010	1.223368	2.764263	0.	0.	0.	-47.825588	-9.216759	-35.635014	16.582418	57.532227	-13.189562	-9.989019	-18.841143	-10.856136	0.	0.	0.	-0.000001	-0.000000	0.000002	10.889781	21.539698	18.462955	6.057195	-1.808714	18.199457	39.869614	37.562435	23.895710	-5.689534	2.294347	7.721794	32.448521	13.907109	-10.733374	-18.192787	7.530308	0.728244	-90.826241	-22.168575	-58.228851	4.347089	-60.946941	9.715094	-24.731443	24.462278	15.741319	7.182346	28.976105	2.687425	-18.464066	4.045131	7.982437	
6.776052	95.283630	-11.593280	-1.120286	-24.653704	-52.880264	26.359966	-54.577229	26.928633	0.592149	79.782959	9.311473	-8.900094	0.816677	3.703169	0.	0.	0.	-48.102493	-9.181138	-35.599457	22.212744	57.706020	-17.916170	-10.981523	-21.511038	-10.347498	0.	0.	0.	-0.000000	0.000001	-0.000000	11.261903	17.173487	17.471813	5.785322	-0.412667	20.509003	31.631975	38.053215	23.452475	-4.868918	4.408231	13.548149	33.517605	14.960797	-11.164593	-15.484949	8.237186	1.123765	-84.552200	-16.074549	-55.250538	12.329730	-55.075821	18.308163	-22.712700	24.669273	14.528511	5.667343	30.000591	5.754856	-15.763913	5.897894	9.468753	
6.528494	94.933971	-11.932043	1.530289	-23.255396	-51.041775	16.038540	-49.507416	20.172361	13.625935	74.880745	-0.616808	-9.893131	0.783729	1.443213	0.	0.	0.	-49.084942	-10.382676	-35.691219	27.415470	56.875801	-25.034903	-11.267449	-22.847908	-8.895292	0.	0.	0.	0.000001	-0.000002	-0.000001	9.476175	11.338184	15.735704	4.640224	-0.214492	23.120520	21.395046	37.206146	23.681324	-5.040166	3.385684	15.135641	34.815418	15.142738	-11.090405	-12.898542	6.791883	3.160828	-74.269363	-4.749699	-43.360596	11.104257	-46.008163	17.926331	-18.918749	25.428415	16.368286	2.767301	27.845469	11.077845	-14.166150	8.130893	14.147329	
6.376306	94.446966	-11.834746	2.413487	-22.732494	-50.462894	9.498088	-45.988991	13.751616	14.167806	73.559265	-2.903400	-10.975858	-0.070456	1.884712	0.	0.	0.	-49.482105	-11.672994	-34.929947	29.923281	57.547916	-26.949015	-11.809483	-23.423580	-10.771989	0.	0.	0.	-0.000001	0.000000	0.000001	8.645113	9.754205	15.312363	3.561979	-0.247404	23.452648	14.656286	35.029434	22.985157	-5.924181	0.005627	15.931526	33.753464	16.012859	-10.402599	-12.656316	5.332720	3.142591	-65.368675	2.527761	-32.891628	5.739047	-42.783897	10.763515	-16.216627	26.693697	14.513406	0.285456	25.298061	13.085807	-14.056387	8.219521	17.558096	
6.197686	94.072600	-11.669048	2.403377	-22.505299	-50.287720	6.853456	-43.981476	10.328761	12.612414	73.183945	-2.951053	-11.500933	-0.668279	2.395815	0.	0.	0.	-49.353779	-12.148186	-34.528267	30.625669	58.378078	-27.741741	-11.706993	-24.063988	-11.454338	0.	0.	0.	-0.000000	0.000001	-0.000000	8.164227	9.732924	15.117222	3.286339	-0.771239	23.361115	11.981993	33.501232	21.350979	-6.360297	-1.948032	16.776579	33.022377	16.535467	-10.443023	-12.068985	4.731832	2.759053	-60.988384	5.577922	-28.864199	3.419536	-41.686104	6.776670	-14.616506	27.362869	12.149179	-0.837063	23.901356	14.123973	-14.513058	7.942662	19.062361	
6.047842	93.606543	-11.221502	1.978252	-22.048586	-49.923714	3.506721	-39.912006	4.872828	7.383473	73.030258	-0.392330	-12.455151	-1.453121	2.567574	0.	0.	0.	-48.893887	-12.154147	-34.455437	30.796848	59.388626	-27.748589	-11.448246	-24.636551	-12.322997	0.	0.	0.	-0.000001	0.000001	-0.000001	7.878476	9.764518	14.177258	2.235313	-1.961454	22.727362	9.779052	30.455492	16.274942	-7.945720	-5.586127	17.373396	31.551237	17.324348	-10.929182	-11.327248	6.123650	1.925054	-51.511814	8.119928	-25.870491	0.421118	-39.440399	0.981525	-13.737679	27.030796	8.311038	-3.241791	22.093866	16.687237	-13.582560	8.192944	19.970486	
5.257135	93.166579	-10.772146	1.811675	-21.129309	-49.291565	0.662359	-34.649834	0.880030	2.724475	74.465660	5.040760	-15.067005	-2.876637	0.191714	0.	0.	0.	-47.936558	-11.890624	-35.271484	30.267998	60.534828	-26.470997	-11.713896	-25.850679	-13.919552	0.	0.	0.	-0.000001	-0.000001	-0.000000	5.656774	7.899717	10.108225	3.333043	-1.861892	21.542425	7.014266	25.739620	8.161960	-8.089051	-10.692127	14.968857	29.436306	17.629473	-10.307214	-7.260097	8.372144	2.724434	-43.793961	8.176110	-27.392445	4.518363	-34.336323	4.698575	-16.313614	24.345688	7.091106	-3.755086	20.833069	25.146397	-14.772482	10.071445	23.058918	
